<svg xmlns="http://www.w3.org/2000/svg" xmlns:xlink="http://www.w3.org/1999/xlink" width="360.16pt" height="134.9pt" viewBox="0 0 360.16 134.9" version="1.1">
<defs>
<clipPath id="clip1">
  <path d="M 117 109 L 138 109 L 138 134.898438 L 117 134.898438 Z M 117 109 "/>
</clipPath>
<clipPath id="clip2">
  <path d="M 311 30 L 360.160156 30 L 360.160156 61 L 311 61 Z M 311 30 "/>
</clipPath>
</defs>
<g id="surface1">
























<path style=" stroke:none;fill-rule:nonzero;fill:rgb(2.398682%,23.899841%,51.799011%);fill-opacity:1;" d="M 11.5 83.585938 C 9.105469 83.585938 4.96875 83.46875 0 83.46875 L 0 43.25 C 3.335938 43.078125 8.460938 42.960938 13.308594 42.960938 C 21.832031 42.960938 26.554688 46.480469 26.554688 52.925781 C 26.554688 56.921875 24.046875 60.4375 20.316406 61.921875 L 20.316406 62.039063 C 24.976563 63.054688 27.320313 67 27.320313 71.050781 C 27.320313 76.898438 23.410156 83.585938 11.5 83.585938 M 12.03125 49.222656 C 10.445313 49.222656 8.929688 49.277344 7.585938 49.335938 L 7.585938 59.835938 C 8.53125 59.902344 9.457031 59.902344 10.683594 59.902344 C 15.875 59.902344 18.5625 57.746094 18.5625 54.167969 C 18.5625 51.183594 16.808594 49.222656 12.03125 49.222656 M 10.914063 65.683594 C 10.332031 65.683594 8.40625 65.683594 7.585938 65.746094 L 7.585938 77.023438 C 8.53125 77.144531 9.980469 77.261719 11.738281 77.261719 C 16.6875 77.261719 19.207031 74.871094 19.207031 71.234375 C 19.207031 67.296875 15.875 65.683594 10.914063 65.683594 "/>
<path style=" stroke:none;fill-rule:nonzero;fill:rgb(2.398682%,23.899841%,51.799011%);fill-opacity:1;" d="M 47.421875 83.535156 C 47.421875 81.710938 47.484375 79.832031 47.730469 78.203125 L 47.664063 78.140625 C 46.191406 81.652344 42.460938 84.089844 37.925781 84.089844 C 32.414063 84.089844 29.222656 80.898438 29.222656 75.890625 C 29.222656 68.441406 36.449219 64.484375 46.808594 64.484375 L 46.808594 62.789063 C 46.808594 59.546875 45.28125 57.847656 40.863281 57.847656 C 38.109375 57.847656 34.433594 58.785156 31.859375 60.292969 L 31.1875 53.585938 C 34.246094 52.457031 38.171875 51.640625 42.09375 51.640625 C 51.898438 51.640625 54.65625 55.664063 54.65625 62.484375 L 54.894531 83.445313 Z M 46.808594 69.683594 C 38.53125 69.683594 36.695313 72.125 36.695313 74.632813 C 36.695313 76.640625 38.046875 77.949219 40.3125 77.949219 C 44.179688 77.949219 46.808594 74.191406 46.808594 70.4375 "/>
<path style=" stroke:none;fill-rule:nonzero;fill:rgb(2.398682%,23.899841%,51.799011%);fill-opacity:1;" d="M 298.085938 83.535156 C 298.085938 81.710938 298.15625 79.832031 298.398438 78.203125 L 298.335938 78.140625 C 296.871094 81.652344 293.128906 84.089844 288.59375 84.089844 C 283.078125 84.089844 279.894531 80.898438 279.894531 75.890625 C 279.894531 68.441406 287.117188 64.484375 297.484375 64.484375 L 297.484375 62.789063 C 297.484375 59.546875 295.941406 57.847656 291.535156 57.847656 C 288.773438 57.847656 285.113281 58.785156 282.527344 60.292969 L 281.859375 53.585938 C 284.910156 52.457031 288.832031 51.640625 292.761719 51.640625 C 302.566406 51.640625 305.320313 55.664063 305.320313 62.484375 L 305.566406 83.445313 Z M 297.484375 69.683594 C 289.199219 69.683594 287.359375 72.125 287.359375 74.632813 C 287.359375 76.640625 288.71875 77.949219 290.980469 77.949219 C 294.835938 77.949219 297.484375 74.191406 297.484375 70.4375 "/>
<path style=" stroke:none;fill-rule:nonzero;fill:rgb(2.398682%,23.899841%,51.799011%);fill-opacity:1;" d="M 102.394531 84.039063 C 93.929688 84.039063 88.664063 79.519531 88.664063 68.933594 C 88.664063 59.222656 93.628906 51.773438 104.414063 51.773438 C 106.5 51.773438 108.703125 52.082031 110.667969 52.65625 L 109.871094 59.601563 C 108.21875 58.96875 106.3125 58.472656 104.355469 58.472656 C 99.394531 58.472656 96.875 62.242188 96.875 68.113281 C 96.875 73.441406 98.894531 77.085938 104.101563 77.085938 C 106.195313 77.085938 108.457031 76.640625 110.121094 75.769531 L 110.722656 82.585938 C 108.636719 83.40625 105.632813 84.039063 102.394531 84.039063 "/>
<path style=" stroke:none;fill-rule:nonzero;fill:rgb(2.398682%,23.899841%,51.799011%);fill-opacity:1;" d="M 126.785156 84.089844 C 118.15625 84.089844 112.570313 79.519531 112.570313 68.441406 C 112.570313 58.726563 118.886719 51.699219 128.136719 51.699219 C 136.773438 51.699219 142.351563 56.589844 142.351563 67.308594 C 142.351563 77.082031 135.921875 84.089844 126.785156 84.089844 M 127.585938 58.472656 C 124.097656 58.472656 120.664063 61.238281 120.664063 67.613281 C 120.664063 74.003906 122.929688 77.261719 127.460938 77.261719 C 131.324219 77.261719 134.261719 74.082031 134.261719 67.75 C 134.261719 61.730469 132.183594 58.472656 127.585938 58.472656 "/>
<path style=" stroke:none;fill-rule:nonzero;fill:rgb(2.398682%,23.899841%,51.799011%);fill-opacity:1;" d="M 170.960938 84.089844 C 162.324219 84.089844 156.746094 79.519531 156.746094 68.441406 C 156.746094 58.726563 163.054688 51.699219 172.3125 51.699219 C 180.949219 51.699219 186.523438 56.589844 186.523438 67.308594 C 186.523438 77.082031 180.09375 84.089844 170.960938 84.089844 M 171.769531 58.472656 C 168.273438 58.472656 164.832031 61.238281 164.832031 67.613281 C 164.832031 74.003906 167.101563 77.261719 171.644531 77.261719 C 175.492188 77.261719 178.441406 74.082031 178.441406 67.75 C 178.441406 61.730469 176.359375 58.472656 171.769531 58.472656 "/>
<path style=" stroke:none;fill-rule:nonzero;fill:rgb(2.398682%,23.899841%,51.799011%);fill-opacity:1;" d="M 277.007813 83.46875 L 268.671875 83.46875 L 268.671875 52.460938 C 272.539063 51.960938 272.46875 52.148438 277.007813 52.265625 Z M 273.085938 48.328125 C 270.453125 48.328125 268.246094 46.132813 268.246094 43.4375 C 268.246094 40.808594 270.453125 38.617188 273.085938 38.617188 C 275.785156 38.617188 277.980469 40.746094 277.980469 43.4375 C 277.980469 46.132813 275.785156 48.328125 273.085938 48.328125 "/>
<path style=" stroke:none;fill-rule:nonzero;fill:rgb(2.398682%,23.899841%,51.799011%);fill-opacity:1;" d="M 76.609375 51.640625 C 71.652344 51.640625 68.089844 54.214844 66.25 57.914063 L 66.191406 57.847656 L 66.394531 52.269531 C 63.65625 52.519531 61.199219 53.085938 59.136719 53.960938 L 59.136719 83.46875 L 67.042969 83.46875 L 67.042969 68.441406 C 67.042969 62.980469 70.175781 58.355469 74.15625 58.355469 C 77.03125 58.355469 77.898438 60.292969 77.898438 63.546875 L 77.898438 83.46875 L 85.679688 83.46875 L 85.679688 61.605469 C 85.679688 56.160156 83.472656 51.640625 76.609375 51.640625 "/>
<path style=" stroke:none;fill-rule:nonzero;fill:rgb(2.398682%,23.899841%,51.799011%);fill-opacity:1;" d="M 145.765625 41.722656 L 145.765625 83.46875 L 153.339844 83.46875 L 153.339844 39.867188 C 150.453125 40.144531 147.890625 40.761719 145.765625 41.722656 "/>
<path style=" stroke:none;fill-rule:nonzero;fill:rgb(2.398682%,23.899841%,51.799011%);fill-opacity:1;" d="M 254.789063 53.222656 C 250.707031 53.222656 247.488281 55.253906 246.035156 58.46875 L 245.972656 58.46875 C 246.265625 56.921875 246.4375 54.464844 246.4375 52.675781 L 246.4375 39.867188 C 243.546875 40.15625 240.996094 40.785156 238.878906 41.757813 L 238.878906 82.621094 C 242.191406 83.585938 245.566406 84.0625 249.769531 84.0625 C 259.746094 84.0625 265.46875 77.140625 265.46875 67.113281 C 265.46875 58.355469 261.726563 53.222656 254.789063 53.222656 M 250.296875 77.976563 C 248.707031 77.976563 247.488281 77.792969 246.4375 77.4375 L 246.4375 69.085938 C 246.4375 64.140625 248.777344 59.546875 252.621094 59.546875 C 256.019531 59.546875 257.589844 62.339844 257.589844 67.894531 C 257.589844 75.230469 254.546875 77.976563 250.296875 77.976563 "/>
<path style=" stroke:none;fill-rule:nonzero;fill:rgb(2.398682%,23.899841%,51.799011%);fill-opacity:1;" d="M 225.515625 51.640625 C 220.371094 51.640625 216.996094 54.839844 215.589844 57.914063 C 214.851563 54.902344 212.585938 51.640625 207.1875 51.640625 C 202.660156 51.640625 198.984375 54.089844 197.144531 57.914063 L 197.078125 57.914063 C 197.3125 56.242188 197.429688 53.832031 197.445313 52.289063 C 194.617188 52.570313 192.109375 53.179688 190.023438 54.132813 L 190.023438 83.46875 L 197.890625 83.46875 L 197.890625 68.558594 C 197.890625 62.742188 201.25 58.355469 204.867188 58.355469 C 207.878906 58.355469 208.484375 60.660156 208.484375 63.730469 L 208.484375 83.46875 L 216.207031 83.46875 L 216.207031 68.558594 C 216.207031 62.484375 219.757813 58.355469 223.1875 58.355469 C 226.0625 58.355469 226.8125 60.414063 226.8125 63.730469 L 226.8125 83.46875 L 234.652344 83.46875 L 234.652344 62.039063 C 234.652344 54.96875 231.398438 51.640625 225.515625 51.640625 "/>
<g clip-path="url(#clip2)" clip-rule="nonzero">
<path style=" stroke:none;fill-rule:nonzero;fill:rgb(88.598633%,1.998901%,12.199402%);fill-opacity:1;" d="M 359.945313 42.128906 C 360.382813 43.621094 360.242188 44.964844 358.476563 45.6875 C 356.363281 46.550781 354.792969 47.113281 352.1875 48.136719 C 350.851563 48.640625 349.566406 49.144531 348.09375 49.710938 C 346.664063 50.25 345.183594 50.835938 343.570313 51.441406 C 337.15625 53.898438 329.863281 56.640625 320.761719 60 C 318.8125 60.664063 316.828125 59.648438 316.113281 57.558594 C 314.621094 52.789063 312.933594 48.164063 311.289063 43.867188 C 310.589844 41.894531 311.609375 40.105469 313.511719 39.527344 C 318.136719 38.226563 322.269531 37.199219 326.285156 36.21875 C 330.269531 35.234375 333.789063 34.402344 337.148438 33.664063 C 343.875 32.132813 348.199219 31.203125 352.796875 30.402344 C 355.019531 30.011719 355.816406 30.96875 356.414063 32.390625 C 357.722656 35.570313 358.871094 38.773438 359.945313 42.128906 "/>
</g>
<path style=" stroke:none;fill-rule:nonzero;fill:rgb(100%,82.398987%,0%);fill-opacity:1;" d="M 355.625 16.039063 C 354.984375 14.785156 354.425781 14.054688 352.105469 14.011719 C 345.671875 13.875 338.179688 14.363281 326.878906 16.03125 C 321.214844 16.863281 315.101563 18.035156 308.445313 19.6875 C 305.105469 20.574219 301.789063 21.410156 298.429688 22.554688 C 294.898438 23.640625 291.664063 24.808594 288.367188 26.082031 C 286.417969 26.863281 285.253906 28.617188 285.570313 30.117188 C 286.421875 33.613281 287.296875 37.125 288.328125 41.175781 C 288.839844 42.925781 290.847656 43.722656 292.964844 42.914063 C 300.335938 40.117188 308.035156 37.707031 315.238281 35.757813 C 322.472656 33.859375 328.652344 32.433594 334.324219 31.183594 C 345.566406 28.738281 351.457031 27.953125 357.496094 26.894531 C 358.867188 26.648438 359.46875 25.761719 358.859375 24.269531 "/>
<path style=" stroke:none;fill-rule:nonzero;fill:rgb(2.398682%,23.899841%,51.799011%);fill-opacity:1;" d="M 348.03125 2.207031 C 347.167969 0.726563 346.320313 0.597656 345.199219 0.425781 C 341.121094 -0.226563 331.574219 -0.132813 323.582031 0.714844 C 319.554688 1.054688 315.453125 1.671875 310.964844 2.503906 C 306.503906 3.398438 302.019531 4.414063 297.328125 5.800781 C 295.753906 6.292969 294.796875 7.199219 295.410156 9.011719 C 296.242188 11.464844 296.984375 13.542969 297.976563 16.433594 C 298.644531 18.347656 300.296875 18.363281 302.046875 17.828125 C 307.289063 16.28125 312.269531 15.089844 317.144531 14.136719 C 322.039063 13.15625 326.378906 12.546875 330.53125 11.980469 C 338.859375 10.980469 346 10.765625 350.019531 10.714844 C 350.945313 10.695313 351.5625 9.859375 350.878906 8.78125 "/>





</g>
</svg>