<?xml version="1.0" encoding="UTF-8"?>
<svg xmlns="http://www.w3.org/2000/svg" xmlns:xlink="http://www.w3.org/1999/xlink" width="425.2pt" height="425.2pt" viewBox="0 0 425.2 425.2" version="1.1">
<defs>
<clipPath id="clip1">
  <path d="M 0 0 L 425.199219 0 L 425.199219 425.199219 L 0 425.199219 Z M 0 0 "/>
</clipPath>
</defs>
<g id="surface1">
<g clip-path="url(#clip1)" clip-rule="nonzero">
<path style=" stroke:none;fill-rule:nonzero;fill:rgb(100%,90.99884%,1.199341%);fill-opacity:1;" d="M 425.195313 212.601563 C 425.195313 330.015625 330.015625 425.199219 212.597656 425.199219 C 95.183594 425.199219 0 330.015625 0 212.601563 C 0 95.1875 95.183594 0.00390625 212.597656 0.00390625 C 330.015625 0.00390625 425.195313 95.1875 425.195313 212.601563 "/>
</g>
<path style=" stroke:none;fill-rule:nonzero;fill:rgb(13.299561%,11.799622%,12.199402%);fill-opacity:1;" d="M 90.238281 195.019531 C 90.164063 189.445313 87.78125 185.804688 84.957031 183.503906 C 82.199219 181.257813 78.945313 180.890625 74.519531 180.890625 C 67.390625 180.890625 58.796875 185.601563 58.796875 195.019531 Z M 66.34375 154.855469 L 79.726563 137.394531 L 104.925781 137.5 L 82.96875 155.066406 Z M 92.589844 218.742188 L 116.847656 218.742188 C 115.488281 227.527344 111.703125 235.332031 104.628906 241.3125 C 97.550781 247.292969 87.980469 250.28125 75.917969 250.28125 C 62.496094 250.28125 51.792969 246.074219 43.804688 237.65625 C 35.816406 229.238281 31.820313 218.796875 31.820313 206.328125 C 31.820313 193.40625 35.761719 182.496094 43.648438 173.597656 C 51.53125 164.699219 62.054688 160.246094 75.214844 160.246094 C 87.953125 160.246094 98.253906 164.441406 106.113281 172.832031 C 113.972656 181.21875 117.449219 192.640625 117.449219 207.09375 C 117.449219 208.28125 117.421875 209.929688 117.371094 212.023438 L 59.128906 212.023438 C 59.230469 217.464844 60.277344 221.34375 62.371094 223.65625 C 64.355469 225.851563 71.996094 229.09375 76.695313 229.09375 C 83.484375 229.09375 91.386719 225.828125 92.589844 218.742188 "/>
<path style=" stroke:none;fill-rule:nonzero;fill:rgb(13.299561%,11.799622%,12.199402%);fill-opacity:1;" d="M 200.105469 248.730469 L 169.566406 248.730469 L 153.152344 224.382813 L 135.339844 248.730469 L 106.535156 248.730469 L 137.769531 202.710938 L 109.785156 161.929688 L 139.25 161.929688 C 139.25 161.929688 153.226563 180.75 153.667969 181.769531 C 154.210938 180.804688 166.75 161.929688 166.75 161.929688 L 196.996094 161.929688 L 168.71875 202.269531 "/>
<path style=" stroke:none;fill-rule:nonzero;fill:rgb(13.299561%,11.799622%,12.199402%);fill-opacity:1;" d="M 236.089844 161.886719 L 230.6875 248.730469 L 205.820313 248.730469 L 201.09375 161.886719 Z M 236.089844 161.886719 "/>
<path style=" stroke:none;fill-rule:nonzero;fill:rgb(13.299561%,11.799622%,12.199402%);fill-opacity:1;" d="M 297.890625 162.160156 L 297.890625 181.277344 L 281.683594 181.277344 L 281.683594 220.460938 C 281.683594 224.25 282.601563 226 284.027344 226.710938 C 285.453125 227.425781 286.8125 227.625 288.335938 227.625 C 290.699219 227.625 294.640625 226.765625 297.890625 225.925781 L 297.890625 247.992188 C 292.085938 249.125 286.375 249.300781 280.765625 249.300781 C 271.710938 249.300781 264.636719 246.875 260.382813 242.988281 C 256.125 239.101563 254.410156 233.773438 254.410156 225.257813 L 254.488281 216.476563 L 254.488281 181.277344 L 241.910156 181.277344 L 241.910156 162.160156 L 255.078125 162.160156 L 254.929688 137.726563 L 281.675781 137.804688 L 281.675781 162.160156 "/>
<path style=" stroke:none;fill-rule:nonzero;fill:rgb(13.299561%,11.799622%,12.199402%);fill-opacity:1;" d="M 343.804688 229.703125 C 360.746094 229.703125 361.320313 210.3125 361.320313 204.359375 C 361.320313 196.253906 359.953125 181.484375 343.9375 181.484375 C 328.113281 181.484375 326.554688 196.765625 326.554688 205.210938 C 326.554688 215.132813 328.273438 229.703125 343.804688 229.703125 M 342.832031 250.28125 C 329.464844 250.28125 318.847656 245.816406 310.972656 236.886719 C 303.101563 227.960938 299.164063 217.484375 299.164063 205.464844 C 299.164063 192.539063 303.273438 181.769531 311.488281 173.152344 C 319.703125 164.535156 330.390625 160.226563 343.542969 160.226563 C 356.808594 160.226563 367.464844 164.476563 375.523438 172.980469 C 383.578125 181.484375 387.609375 192.144531 387.609375 204.957031 C 387.609375 217.882813 383.527344 228.667969 375.363281 237.3125 C 367.199219 245.960938 356.355469 250.28125 342.832031 250.28125 "/>
<path style=" stroke:none;fill-rule:nonzero;fill:rgb(92.89856%,10.998535%,13.699341%);fill-opacity:1;" d="M 234.59375 268.480469 C 234.59375 277.378906 227.382813 284.585938 218.488281 284.585938 C 209.589844 284.585938 202.382813 277.378906 202.382813 268.480469 C 202.382813 259.585938 209.589844 252.375 218.488281 252.375 C 227.382813 252.375 234.59375 259.585938 234.59375 268.480469 "/>
<path style=" stroke:none;fill-rule:nonzero;fill:rgb(13.299561%,11.799622%,12.199402%);fill-opacity:1;" d="M 398.558594 161.664063 C 393.46875 161.664063 389.328125 165.804688 389.328125 170.890625 C 389.328125 175.976563 393.46875 180.117188 398.558594 180.117188 C 403.644531 180.117188 407.785156 175.976563 407.785156 170.890625 C 407.785156 165.804688 403.644531 161.664063 398.558594 161.664063 M 398.558594 181.8125 C 392.535156 181.8125 387.632813 176.914063 387.632813 170.890625 C 387.632813 164.867188 392.535156 159.96875 398.558594 159.96875 C 404.582031 159.96875 409.480469 164.867188 409.480469 170.890625 C 409.480469 176.914063 404.582031 181.8125 398.558594 181.8125 "/>
<path style=" stroke:none;fill-rule:nonzero;fill:rgb(13.299561%,11.799622%,12.199402%);fill-opacity:1;" d="M 396.535156 167.171875 L 396.535156 169.960938 L 398.105469 169.960938 C 398.621094 169.960938 398.992188 169.925781 399.222656 169.851563 C 399.457031 169.78125 399.664063 169.621094 399.847656 169.371094 C 400.027344 169.121094 400.117188 168.839844 400.117188 168.519531 C 400.117188 168.214844 400.027344 167.941406 399.847656 167.699219 C 399.664063 167.460938 399.46875 167.3125 399.253906 167.253906 C 399.039063 167.199219 398.640625 167.171875 398.050781 167.171875 Z M 396.535156 171.828125 L 396.535156 176.164063 L 393.953125 176.164063 L 393.953125 165.222656 L 398.765625 165.222656 C 399.652344 165.222656 400.363281 165.324219 400.898438 165.53125 C 401.4375 165.738281 401.882813 166.113281 402.234375 166.664063 C 402.589844 167.214844 402.765625 167.828125 402.765625 168.5 C 402.765625 169.8125 402.132813 170.757813 400.863281 171.328125 L 402.882813 176.164063 L 400.050781 176.164063 L 398.371094 171.828125 "/>
</g>
</svg>
