<svg xmlns="http://www.w3.org/2000/svg" id="Layer_1" data-name="Layer 1" viewBox="0 0 1504.28 714.75"><link xmlns="" type="text/css" rel="stylesheet" id="dark-mode-custom-link"/><link xmlns="" type="text/css" rel="stylesheet" id="dark-mode-general-link"/><style xmlns="" lang="en" type="text/css" id="dark-mode-custom-style"/><style xmlns="" lang="en" type="text/css" id="dark-mode-native-style"/><style xmlns="" lang="en" type="text/css" id="dark-mode-native-sheet"/><defs><style>.cls-1{fill:#00539b;}.cls-2{fill:#5b6670;}</style></defs><title>WFS LOGO</title><path class="cls-1" d="M1254.52,363.19c-15.71,0-28.18,14.84-30.85,37.36h51.58v-7.13c0-17.76-8.55-30.23-20.73-30.23M1115.77,465.78c-11.09,11.55-19.12,18.41-27.18,22.22h27.18ZM1157.54,0C966,0,810.78,160,810.78,357.33a365.27,365.27,0,0,0,24,130.67h19.45V475.86h22.52V305.07H854.27V292.63H976.38v-8.31h16v47.14H976.71V310.11H915.05v70H962.5V359.92l16-.27V418l-16,.3V397.58H915.05v78.28h19.86V488h111.82c-11.76-5.66-17.84-17.07-17.84-34.07V372.07h-21.08v-9.48L1050.52,351h13.07v97c0,16.89,5.31,24.33,17.48,24.33,11.55,0,19-4.75,34.7-21.68V372.07h-15.14V361.39L1139.76,351h10.7v119.2h20.73V480l-32,8h89.33c-25.66-9.23-41.62-33.44-41.62-66.12,0-43,27-71.44,67.9-71.44,34.39,0,57.21,21.36,57.21,53.95v11.28h-88.62c0,36.77,16.62,59.59,43.31,59.59,11,0,16.88-2.37,39.7-16l6.81,13.05c-14,7.87-23.66,12.74-32.24,15.68h53V475.86h17.54v-185h-19.9v-9.51l42.7-11.57h11.84V475.86h17.52V488h23.83a334.16,334.16,0,0,0,23.66-124c0-180.47-142-326.77-317-326.77A308.88,308.88,0,0,0,955.47,94.09c54.63-43.52,123-69.42,197.39-69.42,178.44,0,323.1,149.08,323.1,333A340.28,340.28,0,0,1,1450.25,488a332.25,332.25,0,0,1-110.57,141.29c-56.75,44.42-127.51,70.84-204.25,70.84-4.74,0-9.53-.11-14.24-.31l-4.69-.32c-3.13-.16-6.29-.36-9.39-.6-1.85-.16-3.71-.38-5.56-.57-2.8-.3-5.61-.6-8.39-1l-5.83-.81c-2.66-.41-5.33-.82-8-1.26-2-.35-3.95-.7-5.89-1.09-2.61-.49-5.2-1-7.76-1.6-2-.41-3.89-.82-5.83-1.28-2.61-.6-5.17-1.28-7.79-1.94-1.85-.51-3.7-.95-5.55-1.49-2.83-.76-5.58-1.64-8.39-2.51-1.58-.49-3.16-.95-4.74-1.44-4.14-1.34-8.22-2.81-12.31-4.3-2-.71-3.87-1.53-5.8-2.29-2.23-.87-4.49-1.72-6.73-2.67-2.06-.87-4.13-1.82-6.23-2.73s-4-1.79-6-2.72-4.22-2-6.35-3l-5.63-2.86c-2.13-1.12-4.25-2.23-6.35-3.38-1.77-1-3.57-2-5.36-3-2.13-1.22-4.25-2.42-6.32-3.67-1.69-1-3.38-2.07-5.07-3.13-2.12-1.29-4.22-2.59-6.31-4-1.59-1-3.11-2.07-4.64-3.1-2.15-1.5-4.3-2.92-6.42-4.42-7.44-5.31-14.68-10.86-21.68-16.72,51.28,47.9,116.62,80.12,188.84,89.54q3.51.47,7,.82c1.63.22,3.21.41,4.84.57a335.79,335.79,0,0,0,34.64,1.83c191.46,0,346.74-160,346.74-357.42S1349,0,1157.54,0"/><path class="cls-2" d="M348.14,477.35c-18.09,0-30.84-23.15-30.84-56,0-33.23,12.75-56.35,30.84-56.35S379,388.08,379,421.31c0,32.89-12.75,56-30.85,56m0-126.91c-39.74,0-68.49,29.63-68.49,70.87,0,40.9,28.75,70.86,68.49,70.86s68.77-30,68.77-70.86c0-41.24-29-70.87-68.77-70.87"/><path class="cls-2" d="M521,350.44c-8.32,0-15.12,4.14-25.81,16l-6.82,7.4V351h-13l-42.69,11.57v9.48h20.74V475.86H435.9V488.3h73.24V475.86H488.37V393.72c8-10.38,12.77-14.22,18.4-14.22,3.54,0,7.1,2.07,14.81,7.68l18.68-25.79-9.17-8c-2.09-2-5.64-2.94-10.09-2.94"/><polygon class="cls-2" points="600.75 269.81 588.89 269.81 546.2 281.38 546.2 290.86 566.05 290.86 566.05 475.86 548.57 475.86 548.57 488.33 618.23 488.33 618.23 475.86 600.75 475.86 600.75 269.81"/><path class="cls-2" d="M724.68,458.64c-8.91,8.91-16.6,13.08-24.29,13.08-17.22,0-31.16-23.13-31.16-51.61,0-31.7,17.21-56,39.43-56,11,0,16,6.81,16,22.52Zm35,11.58V269.8H746.61l-42.68,11.58v9.48h20.75v63.42c-9.49-3.24-13.33-3.84-21.65-3.84-40.61,0-71.45,32-71.45,73.83,0,39.11,23.73,67.9,56.64,67.9,15.12,0,22.54-3.84,36.46-18.08v17.18h13L780.41,480v-9.8Z"/><polygon class="cls-2" points="246.52 290.42 246.52 302.87 267.88 302.87 213.92 441.05 158.98 302.78 177.39 302.87 177.39 290.42 106.87 290.42 106.87 302.87 123.48 302.87 142.72 351.91 108.53 438.95 55.44 302.87 72.06 302.87 72.06 290.42 0 290.42 0 302.87 17.51 302.87 91.02 491.13 110.01 491.13 153.52 379.42 197.3 491.13 216.26 491.13 289.82 302.87 304.64 302.87 304.64 290.42 246.52 290.42"/><path class="cls-2" d="M940.41,607.67h-6.13V587.73h6.13v8.2c5,4,8.74,5.42,14.16,5.42,6.86,0,11.85-4.09,11.85-9.86,0-5-3.22-8.53-13.51-15.17-10.87-6.86-12.17-8-15-11.3a18.77,18.77,0,0,1-4.22-12.53c0-12.17,9-20.26,22.46-20.26a28.32,28.32,0,0,1,12,2.45v-3.32h6v18.92h-6v-7.62c-4.69-3-7.66-4.11-11.77-4.11-5.72,0-10.18,4.11-10.18,9.28,0,4.44,2.56,7.25,13.18,14,5.12,3.32,8.33,5.3,9.53,6.2a25,25,0,0,1,6.75,7.19,21,21,0,0,1,3.11,11.42c0,12.63-9.18,21.48-22.17,21.48a29.55,29.55,0,0,1-16.15-4.3Z"/><path class="cls-2" d="M1022,573.87v-2.64c0-6.68-3.24-11.33-7.77-11.33-5.88,0-10.53,5.56-11.49,14Zm14.16,26.82c-10.87,6.1-14.73,7.41-22.47,7.41-14.87,0-24.73-10.51-24.73-26.25,0-16,10.08-26.69,25.38-26.69,12.86,0,21.36,8,21.36,20.18v4.17h-33.09c0,13.75,6.18,22.27,16.15,22.27,4.08,0,6.32-.87,14.87-6Z"/><path class="cls-2" d="M1073.56,606.66h-27.35V602h6.51V563.25H1045v-3.54l16-4.33h4.87v8.55l2.54-2.81c4-4.41,6.56-6,9.64-6a5.23,5.23,0,0,1,3.78,1.12l3.43,3-7,9.61c-2.86-2.09-4.22-2.88-5.55-2.88-2.1,0-3.87,1.47-6.87,5.34V602h7.77Z"/><polygon class="cls-2" points="1142.78 561.15 1137.91 561.15 1120.07 608.1 1115.77 608.1 1096.81 561.15 1093.84 561.15 1093.84 556.49 1115.33 556.49 1115.33 561.15 1110.54 561.15 1121.73 588.71 1132.38 561.15 1125.73 561.15 1125.73 556.49 1142.78 556.49 1142.78 561.15"/><path class="cls-2" d="M1164.73,528.47a7.87,7.87,0,1,1-7.89,7.87,7.9,7.9,0,0,1,7.89-7.87m13.51,78.19h-26V602h6.53V563.25h-7.3v-3.54l16-4.33h4.31V602h6.53Z"/><path class="cls-2" d="M1231.62,602.25c-8.28,4.3-13.37,5.88-19.36,5.88-14.41,0-24.59-10.79-24.59-25.71,0-15.52,11.38-27.26,26.47-27.26,7.73,0,12.2,1.33,17.48,5.12l-7,7c-4-3.78-5.09-4.66-10.16-7.22-8.63,3.68-13,10.3-13,20.38,0,11.08,7.43,21.37,15.52,21.37,3.54,0,6.08-1,11.74-4.44Z"/><path class="cls-2" d="M1273.61,573.87v-2.64c0-6.68-3.21-11.33-7.73-11.33-5.88,0-10.54,5.56-11.55,14Zm14.19,26.82c-10.86,6.1-14.73,7.41-22.46,7.41-14.87,0-24.73-10.51-24.73-26.25,0-16,10.07-26.69,25.35-26.69,12.86,0,21.38,8,21.38,20.18v4.17h-33.09c0,13.75,6.18,22.27,16.15,22.27,4.09,0,6.32-.87,14.87-6Z"/><path class="cls-2" d="M1305,607.67h-5.42V591.93h6.07v3c0,4.44,6.21,8.42,13.07,8.42,5.31,0,8.64-2.32,8.64-5.86,0-4.44-2.75-6.67-13.62-10.76S1299,578.2,1299,570.47c0-9.21,7.08-15.31,17.7-15.31,5.44,0,9.2,1.12,12.42,3.78l.68-4h5.75l-2.78,15.93h-5.61a12.57,12.57,0,0,0,.62-3.64c0-3.76-5.42-7.3-10.94-7.3-4.77,0-8,2.45-8,6.21,0,4.11,1.79,5.42,13.5,10.07,10.87,4.3,14.52,8.53,14.52,16.51,0,9.72-6.4,15.38-17.59,15.38-6.46,0-11-1.44-14.3-4.44Z"/><path class="cls-2" d="M1469.32,582.88h3.32c3.84,0,7-1.3,7-4.41,0-2.75-2-4.6-6.45-4.6a15.82,15.82,0,0,0-3.84.38Zm-.17,16.86h-7V569.68a77.24,77.24,0,0,1,11.55-.93c5.66,0,8.22.93,10.29,2.4a7.59,7.59,0,0,1,3.08,6.39c0,3.68-2.75,6.08-6.21,7.17v.35c2.92,1,4.38,3.33,5.31,7.35a28,28,0,0,0,2.18,7.33h-7.33c-.92-1.12-1.44-3.65-2.37-7.33-.54-3.13-2.39-4.57-6.26-4.57h-3.27Zm-18.57-15.58c0,13.4,10.13,24.05,23.5,24.05,13,.16,23-10.65,23-23.88s-9.94-24.21-23.31-24.21c-13,0-23.15,10.86-23.15,24m54.14,0c0,16.89-13.56,30.26-30.8,30.26s-31-13.37-31-30.26,13.78-30.09,31.18-30.09c17.08,0,30.64,13.21,30.64,30.09"/></svg>
